<svg xmlns="http://www.w3.org/2000/svg" version="1.1" xmlns:xlink="http://www.w3.org/1999/xlink" width="1000" height="1000"><g clip-path="url(#SvgjsClipPath1033)"><rect width="1000" height="1000" fill="#ffffff"></rect><g transform="matrix(2,0,0,2,0,0)"><svg xmlns="http://www.w3.org/2000/svg" version="1" xmlns:xlink="http://www.w3.org/1999/xlink" width="500" zoomAndPan="magnify" viewBox="0 0 375 374.999991" height="500" preserveAspectRatio="xMidYMid meet"><rect x="-37.5" width="450" fill="#ffffff" y="-37.499999" height="449.999989" fill-opacity="1"></rect><rect x="-37.5" width="450" fill="#ffffff" y="-37.499999" height="449.999989" fill-opacity="1"></rect><path fill="#55121b" d="M 206.359375 137.546875 L 257.671875 137.546875 L 221.015625 190.699219 C 229.753906 178.785156 231.203125 163.671875 224.683594 152.210938 C 219.070312 142.34375 209.496094 138.621094 206.359375 137.546875 Z M 206.359375 137.546875 " fill-opacity="1" fill-rule="nonzero"></path><path fill="#55121b" d="M 205.765625 210.859375 L 185.605469 267.671875 L 183.769531 256.675781 C 176.402344 240.222656 167.25 220.429688 156.28125 198.027344 C 146.6875 178.441406 139.253906 164.105469 125.125 148.546875 C 120.746094 143.722656 116.835938 140.007812 114.128906 137.546875 L 170.945312 137.546875 C 169.707031 138.265625 167.234375 139.925781 165.449219 143.046875 C 164.207031 145.210938 163.777344 147.246094 163.613281 148.542969 C 174.609375 169.3125 185.609375 190.082031 196.605469 210.855469 L 205.765625 210.855469 Z M 205.765625 210.859375 " fill-opacity="1" fill-rule="nonzero"></path><path fill="#55121b" d="M 215.945312 90.675781 C 215.945312 91.644531 215.898438 92.609375 215.800781 93.570312 C 215.707031 94.535156 215.566406 95.488281 215.378906 96.4375 C 215.1875 97.386719 214.953125 98.324219 214.671875 99.25 C 214.390625 100.175781 214.066406 101.082031 213.695312 101.976562 C 213.328125 102.871094 212.914062 103.742188 212.457031 104.597656 C 212.003906 105.449219 211.503906 106.277344 210.96875 107.082031 C 210.429688 107.886719 209.855469 108.660156 209.242188 109.410156 C 208.628906 110.15625 207.980469 110.871094 207.296875 111.554688 C 206.613281 112.238281 205.894531 112.890625 205.148438 113.503906 C 204.402344 114.117188 203.625 114.691406 202.820312 115.226562 C 202.015625 115.765625 201.1875 116.261719 200.335938 116.71875 C 199.484375 117.175781 198.609375 117.585938 197.714844 117.957031 C 196.824219 118.328125 195.914062 118.652344 194.988281 118.933594 C 194.0625 119.214844 193.125 119.449219 192.175781 119.636719 C 191.230469 119.824219 190.273438 119.96875 189.3125 120.0625 C 188.347656 120.15625 187.382812 120.203125 186.417969 120.203125 C 185.449219 120.203125 184.484375 120.15625 183.523438 120.0625 C 182.558594 119.96875 181.605469 119.824219 180.65625 119.636719 C 179.707031 119.449219 178.769531 119.214844 177.84375 118.933594 C 176.917969 118.652344 176.011719 118.328125 175.117188 117.957031 C 174.222656 117.585938 173.351562 117.175781 172.496094 116.71875 C 171.644531 116.261719 170.816406 115.765625 170.011719 115.226562 C 169.207031 114.691406 168.433594 114.117188 167.683594 113.503906 C 166.9375 112.890625 166.222656 112.238281 165.539062 111.554688 C 164.855469 110.871094 164.203125 110.15625 163.589844 109.410156 C 162.976562 108.660156 162.402344 107.886719 161.863281 107.082031 C 161.328125 106.277344 160.832031 105.449219 160.375 104.597656 C 159.917969 103.742188 159.507812 102.871094 159.136719 101.976562 C 158.765625 101.082031 158.441406 100.175781 158.160156 99.25 C 157.878906 98.324219 157.644531 97.386719 157.457031 96.4375 C 157.265625 95.488281 157.125 94.535156 157.03125 93.570312 C 156.9375 92.609375 156.890625 91.644531 156.890625 90.675781 C 156.890625 89.710938 156.9375 88.746094 157.03125 87.78125 C 157.125 86.820312 157.265625 85.863281 157.457031 84.917969 C 157.644531 83.96875 157.878906 83.03125 158.160156 82.105469 C 158.441406 81.179688 158.765625 80.269531 159.136719 79.378906 C 159.507812 78.484375 159.917969 77.609375 160.375 76.757812 C 160.832031 75.90625 161.328125 75.078125 161.863281 74.273438 C 162.402344 73.46875 162.976562 72.691406 163.589844 71.945312 C 164.203125 71.199219 164.855469 70.480469 165.539062 69.796875 C 166.222656 69.113281 166.9375 68.464844 167.683594 67.851562 C 168.433594 67.238281 169.207031 66.664062 170.011719 66.125 C 170.816406 65.589844 171.644531 65.089844 172.496094 64.636719 C 173.351562 64.179688 174.222656 63.765625 175.117188 63.398438 C 176.011719 63.027344 176.917969 62.703125 177.84375 62.421875 C 178.769531 62.140625 179.707031 61.90625 180.65625 61.714844 C 181.605469 61.527344 182.558594 61.386719 183.523438 61.292969 C 184.484375 61.195312 185.449219 61.148438 186.417969 61.148438 C 187.382812 61.148438 188.347656 61.195312 189.3125 61.292969 C 190.273438 61.386719 191.230469 61.527344 192.175781 61.714844 C 193.125 61.90625 194.0625 62.140625 194.988281 62.421875 C 195.914062 62.703125 196.824219 63.027344 197.714844 63.398438 C 198.609375 63.765625 199.484375 64.179688 200.335938 64.636719 C 201.1875 65.089844 202.015625 65.589844 202.820312 66.125 C 203.625 66.664062 204.402344 67.238281 205.148438 67.851562 C 205.894531 68.464844 206.613281 69.113281 207.296875 69.796875 C 207.980469 70.480469 208.628906 71.199219 209.242188 71.945312 C 209.855469 72.691406 210.429688 73.46875 210.96875 74.273438 C 211.503906 75.078125 212 75.90625 212.457031 76.757812 C 212.914062 77.609375 213.328125 78.484375 213.695312 79.378906 C 214.066406 80.269531 214.390625 81.179688 214.671875 82.105469 C 214.953125 83.03125 215.1875 83.96875 215.378906 84.917969 C 215.566406 85.863281 215.707031 86.820312 215.800781 87.78125 C 215.898438 88.746094 215.945312 89.710938 215.945312 90.675781 Z M 215.945312 90.675781 " fill-opacity="1" fill-rule="nonzero"></path><path fill="#55121b" d="M 110.382812 298.265625 C 110.738281 297.207031 135.148438 305.429688 158.265625 297.792969 C 164.585938 295.703125 169.3125 292.921875 172.574219 290.640625 C 171.210938 288.035156 168.367188 283.6875 162.621094 280.160156 C 150.734375 272.859375 135.53125 274.222656 130.902344 275.394531 C 124.1875 277.097656 116.589844 279.394531 108.515625 282.546875 C 98.203125 286.566406 89.726562 290.953125 83.015625 294.933594 C 88.015625 298.636719 95.394531 303.308594 105.40625 307.324219 C 117.355469 312.113281 128.34375 314.078125 135.878906 314.949219 C 141.449219 315.589844 153.003906 315.453125 165.730469 311.609375 C 178.222656 307.839844 178.054688 304.390625 199.3125 294.929688 C 212.289062 289.15625 217.457031 288.171875 219.835938 287.78125 C 230.824219 285.980469 240.328125 287.332031 245.957031 288.257812 C 252.53125 289.332031 257.96875 290.984375 262.128906 292.546875 C 263.144531 292.925781 246.007812 288.359375 228.546875 291.113281 C 217.144531 292.917969 208.449219 297.5 202.421875 301.597656 C 204.894531 304.039062 209.671875 308.089844 217.351562 311.128906 C 226.796875 314.863281 235.554688 315.058594 239.738281 314.941406 C 246.734375 314.070312 256.449219 312.265625 267.105469 308.269531 C 278.488281 304 286.699219 298.824219 291.980469 294.925781 C 286.105469 291.523438 278.863281 287.851562 270.210938 284.445312 C 258.640625 279.886719 247.890625 277.117188 239.117188 275.390625 C 231.949219 274.894531 221.550781 274.953125 210.511719 278.246094 C 196.988281 282.28125 196.082031 287.117188 180.039062 294.449219 C 171.847656 298.1875 157.15625 304.71875 138.371094 304.453125 C 122.109375 304.226562 110.132812 299.011719 110.386719 298.261719 Z M 110.382812 298.265625 " fill-opacity="1" fill-rule="nonzero"></path></svg></g></g><defs><clipPath id="SvgjsClipPath1033"><rect width="1000" height="1000" x="0" y="0" rx="500" ry="500"></rect></clipPath></defs></svg>